<?xml version="1.0" standalone="no"?>
<!DOCTYPE svg PUBLIC "-//W3C//DTD SVG 20010904//EN"
 "http://www.w3.org/TR/2001/REC-SVG-20010904/DTD/svg10.dtd">
<svg version="1.0" xmlns="http://www.w3.org/2000/svg"
 width="768.000000pt" height="1280.000000pt" viewBox="0 0 768.000000 1280.000000"
 preserveAspectRatio="xMidYMid meet">
<g transform="translate(0.000000,1280.000000) scale(0.100000,-0.100000)"
fill="#000000" stroke="none">
<path d="M3158 12790 c-91 -11 -256 -53 -350 -89 -504 -195 -884 -646 -995
-1184 -16 -76 -17 -285 -21 -2742 -3 -2824 -4 -2785 44 -2975 153 -606 674
-1083 1284 -1175 139 -22 1297 -22 1438 0 532 80 1005 457 1218 971 31 77 84
252 84 282 0 9 -159 12 -760 12 l-760 0 0 255 0 255 775 0 775 0 0 255 0 255
-775 0 -775 0 0 255 0 255 773 2 772 3 0 255 0 255 -772 3 -773 2 0 255 0 255
775 0 775 0 0 255 0 255 -775 0 -775 0 0 255 0 255 775 0 775 0 0 255 0 255
-775 0 -775 0 0 260 0 260 775 0 775 0 0 255 0 255 -775 0 -775 0 0 255 0 255
760 0 761 0 -7 38 c-12 71 -84 274 -128 361 -193 381 -532 678 -923 806 -213
69 -201 68 -923 71 -360 1 -685 -2 -722 -6z"/>
<path d="M3 6903 c4 -1139 2 -1097 68 -1418 104 -504 329 -976 672 -1408 101
-128 380 -408 513 -515 562 -451 1232 -709 1920 -740 l149 -7 0 -895 0 -895
-1087 -3 -1088 -2 0 -510 0 -510 2690 0 2690 0 0 510 0 510 -1087 2 -1088 3 0
895 0 895 149 7 c688 31 1358 289 1920 740 133 107 412 387 513 515 343 432
568 904 672 1408 66 321 64 279 68 1418 l4 1037 -510 0 -510 0 -4 -992 c-3
-960 -4 -998 -25 -1129 -41 -258 -116 -484 -236 -715 -113 -217 -227 -373
-406 -558 -357 -368 -795 -595 -1315 -683 -100 -16 -176 -18 -835 -18 -799 0
-798 0 -1062 66 -631 159 -1186 603 -1494 1193 -120 231 -195 457 -236 715
-21 131 -22 169 -25 1129 l-4 992 -510 0 -510 0 4 -1037z"/>
</g>
</svg>
