<?xml version="1.0" standalone="no"?>
<!DOCTYPE svg PUBLIC "-//W3C//DTD SVG 20010904//EN"
 "http://www.w3.org/TR/2001/REC-SVG-20010904/DTD/svg10.dtd">
<svg version="1.0" xmlns="http://www.w3.org/2000/svg"
 width="1280.000000pt" height="948.000000pt" viewBox="0 0 1280.000000 948.000000"
 preserveAspectRatio="xMidYMid meet">
<g transform="translate(0.000000,948.000000) scale(0.100000,-0.100000)"
fill="#000000" stroke="none">
<path d="M10490 9464 c-71 -29 -106 -135 -66 -197 10 -14 83 -83 164 -154 947
-828 1596 -1937 1826 -3118 67 -339 87 -546 93 -930 6 -354 -6 -565 -48 -850
-200 -1362 -913 -2598 -2026 -3512 -140 -115 -299 -232 -492 -363 -147 -100
-166 -122 -165 -190 1 -88 75 -150 163 -136 23 3 96 46 206 121 1108 749 1925
1798 2345 3007 327 943 396 1963 199 2933 -257 1265 -941 2416 -1954 3289
-138 119 -170 132 -245 100z"/>
<path d="M2185 9451 c-48 -30 -243 -201 -389 -342 -483 -466 -885 -1010 -1187
-1606 -570 -1126 -747 -2416 -498 -3638 229 -1126 782 -2143 1618 -2975 285
-284 530 -489 843 -708 229 -160 272 -184 325 -179 108 11 167 132 105 217
-10 14 -91 75 -179 135 -575 394 -1027 820 -1416 1334 -603 795 -971 1701
-1086 2671 -37 309 -40 878 -7 1160 77 657 246 1234 527 1805 342 696 799
1282 1423 1825 59 52 112 105 117 118 15 40 10 103 -11 137 -38 61 -126 83
-185 46z"/>
<path d="M9422 8829 c-57 -29 -85 -70 -90 -136 -8 -90 13 -121 150 -225 325
-248 657 -582 898 -903 1209 -1615 1177 -3744 -80 -5315 -366 -458 -872 -890
-1362 -1164 -111 -62 -148 -121 -135 -217 7 -50 49 -107 93 -125 69 -29 120
-19 229 44 678 395 1250 922 1670 1540 757 1113 1002 2434 690 3717 -257 1062
-897 2025 -1803 2713 -127 97 -178 111 -260 71z"/>
<path d="M3244 8834 c-54 -12 -377 -279 -598 -494 -668 -651 -1120 -1434
-1331 -2305 -158 -649 -174 -1307 -49 -1950 153 -789 499 -1510 1032 -2155
126 -152 475 -500 632 -630 228 -189 460 -352 714 -503 97 -57 130 -71 171
-75 107 -9 187 64 187 169 -1 87 -34 125 -182 211 -616 359 -1167 877 -1557
1463 -509 766 -771 1697 -723 2578 33 616 172 1153 439 1693 302 614 728 1138
1281 1578 155 124 172 138 191 170 40 66 17 173 -47 222 -33 25 -111 39 -160
28z"/>
<path d="M8773 8000 c-41 -25 -63 -68 -63 -122 0 -57 26 -92 120 -164 325
-247 648 -598 860 -934 374 -591 559 -1253 537 -1915 -14 -417 -85 -759 -237
-1145 -284 -719 -838 -1359 -1535 -1770 -49 -29 -101 -63 -113 -74 -75 -67
-68 -176 13 -226 57 -35 112 -25 229 44 997 587 1680 1547 1875 2637 50 274
67 687 41 960 -97 1013 -612 1944 -1440 2604 -63 51 -129 99 -147 108 -43 23
-101 21 -140 -3z"/>
<path d="M3895 8001 c-11 -5 -66 -44 -122 -88 -842 -655 -1374 -1607 -1473
-2630 -14 -144 -14 -522 0 -666 43 -445 172 -893 373 -1293 197 -394 411 -689
732 -1009 236 -237 483 -431 763 -600 114 -70 155 -89 191 -92 86 -8 151 54
151 144 0 60 -35 96 -178 181 -734 439 -1308 1131 -1571 1896 -133 385 -185
698 -186 1106 0 258 10 371 51 598 152 833 622 1595 1320 2138 78 60 126 105
134 124 41 100 -23 201 -127 199 -21 0 -47 -4 -58 -8z"/>
<path d="M8145 7202 c-38 -24 -49 -38 -65 -84 -12 -31 -11 -42 4 -82 14 -37
34 -59 106 -115 764 -603 1115 -1515 929 -2411 -100 -487 -344 -923 -715
-1279 -160 -154 -311 -268 -532 -403 -37 -22 -67 -49 -78 -69 -49 -96 16 -209
121 -209 91 0 423 226 659 448 500 471 790 1047 867 1721 15 137 7 523 -15
651 -102 602 -360 1106 -785 1531 -123 122 -303 274 -361 304 -39 20 -99 19
-135 -3z"/>
<path d="M4545 7154 c-67 -38 -228 -175 -361 -308 -248 -249 -407 -472 -554
-779 -248 -520 -320 -1082 -210 -1649 136 -705 580 -1359 1205 -1775 136 -90
226 -140 266 -147 71 -12 159 62 159 135 0 56 -28 99 -91 137 -229 139 -380
254 -543 412 -531 515 -801 1192 -755 1895 34 510 217 968 553 1385 83 103
296 312 399 390 127 97 157 154 123 234 -29 69 -128 105 -191 70z"/>
<path d="M7543 6554 c-65 -32 -93 -126 -59 -193 8 -15 57 -62 110 -105 354
-287 572 -677 627 -1120 16 -131 6 -360 -21 -491 -97 -464 -392 -874 -813
-1130 -42 -25 -89 -62 -103 -80 -68 -90 0 -221 115 -219 57 1 144 50 321 183
536 402 837 1045 790 1690 -29 402 -186 791 -444 1100 -121 144 -343 345 -411
371 -37 14 -75 12 -112 -6z"/>
<path d="M5120 6539 c-101 -62 -316 -269 -428 -411 -132 -169 -240 -373 -311
-586 -205 -619 -75 -1299 347 -1815 193 -236 560 -519 677 -521 47 -1 83 19
118 66 26 34 25 112 -1 148 -10 14 -73 61 -140 106 -157 105 -243 176 -350
289 -296 312 -462 721 -462 1135 0 505 244 990 664 1320 74 58 95 90 98 148 4
108 -119 177 -212 121z"/>
<path d="M6165 5841 c-476 -77 -825 -463 -825 -911 0 -316 197 -628 497 -787
301 -160 675 -163 986 -7 98 50 147 85 235 168 90 85 151 169 196 268 63 137
71 177 71 353 0 154 -2 163 -33 254 -50 145 -113 243 -235 370 -131 135 -281
221 -477 273 -84 22 -327 33 -415 19z m312 -142 c108 -14 258 -67 355 -125 97
-58 228 -184 277 -267 181 -306 137 -653 -113 -902 -94 -94 -169 -145 -275
-190 -142 -60 -198 -70 -386 -69 -156 0 -177 2 -259 28 -514 157 -751 651
-523 1090 52 102 196 250 302 312 192 112 401 153 622 123z"/>
</g>
</svg>
