<?xml version="1.0" standalone="no"?>
<!DOCTYPE svg PUBLIC "-//W3C//DTD SVG 20010904//EN"
 "http://www.w3.org/TR/2001/REC-SVG-20010904/DTD/svg10.dtd">
<svg version="1.0" xmlns="http://www.w3.org/2000/svg"
 width="1280.000000pt" height="1280.000000pt" viewBox="0 0 1280.000000 1280.000000"
 preserveAspectRatio="xMidYMid meet">
<g transform="translate(0.000000,1280.000000) scale(0.100000,-0.100000)"
fill="#000000" stroke="none">
<path d="M1342 11457 c-518 -518 -942 -947 -942 -952 0 -6 921 -931 2048
-2058 l2047 -2047 -2047 -2047 c-1127 -1127 -2048 -2052 -2048 -2058 0 -13
1882 -1895 1895 -1895 6 0 931 921 2058 2048 l2047 2047 2047 -2047 c1127
-1127 2052 -2048 2058 -2048 13 0 1895 1882 1895 1895 0 6 -921 931 -2048
2058 l-2047 2047 2047 2047 c1127 1127 2048 2052 2048 2058 0 13 -1882 1895
-1895 1895 -6 0 -931 -921 -2058 -2048 l-2047 -2047 -2047 2047 c-1127 1127
-2052 2048 -2058 2048 -6 0 -434 -424 -953 -943z"/>
</g>
</svg>
