<?xml version="1.0" standalone="no"?>
<!DOCTYPE svg PUBLIC "-//W3C//DTD SVG 20010904//EN"
 "http://www.w3.org/TR/2001/REC-SVG-20010904/DTD/svg10.dtd">
<svg version="1.0" xmlns="http://www.w3.org/2000/svg"
 width="1280.000000pt" height="1280.000000pt" viewBox="0 0 1280.000000 1280.000000"
 preserveAspectRatio="xMidYMid meet">
<g transform="translate(0.000000,1280.000000) scale(0.100000,-0.100000)"
fill="#000000" stroke="none">
<path d="M6095 12794 c-1454 -77 -2782 -610 -3885 -1558 -145 -125 -460 -436
-593 -586 -376 -426 -675 -865 -927 -1365 -374 -740 -584 -1475 -667 -2330
-24 -252 -24 -858 0 -1110 83 -855 293 -1590 667 -2330 321 -636 711 -1169
1226 -1675 479 -471 976 -831 1558 -1131 749 -384 1502 -602 2371 -686 252
-24 858 -24 1110 0 869 84 1622 302 2371 686 582 300 1079 660 1558 1131 515
506 905 1039 1226 1675 374 740 584 1475 667 2330 24 252 24 858 0 1110 -83
855 -293 1590 -667 2330 -321 636 -711 1169 -1226 1675 -329 324 -607 548
-979 793 -888 582 -1867 922 -2940 1022 -162 15 -716 27 -870 19z m720 -1319
c317 -27 551 -66 838 -139 1695 -431 3052 -1703 3592 -3366 259 -798 315
-1678 160 -2513 -337 -1817 -1667 -3328 -3435 -3902 -798 -259 -1678 -315
-2513 -160 -1817 337 -3328 1667 -3902 3435 -259 798 -315 1678 -160 2513 292
1574 1342 2945 2791 3643 573 276 1178 439 1829 493 170 14 617 12 800 -4z"/>
<path d="M6110 9950 c-159 -13 -380 -46 -535 -80 -1145 -255 -2110 -1079
-2547 -2174 -307 -772 -337 -1637 -82 -2427 320 -994 1057 -1800 2025 -2212
481 -205 1005 -298 1559 -275 1288 51 2462 814 3045 1979 114 226 210 482 265
699 11 47 23 93 26 103 5 16 -40 17 -850 17 l-855 0 -52 -101 c-339 -660
-1009 -1070 -1747 -1069 -539 1 -1032 211 -1407 602 -290 301 -468 665 -529
1079 -20 135 -21 410 -1 547 113 793 695 1439 1470 1630 264 66 566 73 840 21
134 -25 338 -91 465 -151 369 -173 708 -496 887 -843 l38 -75 863 -2 c610 -2
862 0 862 8 0 20 -58 218 -95 324 -102 290 -222 532 -400 800 -135 203 -248
344 -414 513 -205 210 -383 358 -599 500 -481 317 -991 502 -1575 573 -152 18
-504 26 -657 14z"/>
</g>
</svg>
