<?xml version="1.0" standalone="no"?>
<!DOCTYPE svg PUBLIC "-//W3C//DTD SVG 20010904//EN"
 "http://www.w3.org/TR/2001/REC-SVG-20010904/DTD/svg10.dtd">
<svg version="1.0" xmlns="http://www.w3.org/2000/svg"
 width="916.000000pt" height="1280.000000pt" viewBox="0 0 916.000000 1280.000000"
 preserveAspectRatio="xMidYMid meet">
<g transform="translate(0.000000,1280.000000) scale(0.100000,-0.100000)"
fill="#000000" stroke="none">
<path d="M6052 12785 c-78 -22 -186 -74 -287 -140 -276 -178 -555 -432 -1360
-1239 -650 -651 -1417 -1453 -2041 -2133 l-139 -152 -1112 0 -1113 -1 0 -2725
0 -2725 1118 0 1117 -1 200 -221 c706 -781 1620 -1743 2186 -2303 747 -738
1098 -1018 1395 -1117 102 -33 231 -32 299 4 144 76 197 217 197 524 l0 171
87 -37 c105 -46 234 -85 361 -112 139 -29 438 -36 586 -14 487 73 910 327
1213 729 509 678 535 1622 62 2333 -283 426 -719 718 -1212 811 -132 24 -485
25 -616 0 -145 -28 -327 -86 -486 -155 -4 -2 -7 1818 -7 4045 1 2815 -2 4068
-9 4114 -26 161 -94 275 -194 326 -63 32 -169 40 -245 18z m1489 -8831 c259
-49 492 -176 695 -378 207 -208 339 -451 407 -754 19 -84 22 -127 22 -317 0
-190 -3 -233 -22 -317 -30 -132 -65 -234 -123 -356 l-49 -103 -986 932 -985
932 0 57 0 57 69 46 c177 118 372 190 587 217 90 11 284 3 385 -16z m-216
-1809 c413 -389 769 -726 793 -749 l43 -42 -82 -61 c-231 -172 -490 -257 -784
-257 -268 0 -503 71 -727 222 l-68 45 0 810 0 811 38 -36 c20 -19 375 -354
787 -743z"/>
</g>
</svg>
