<?xml version="1.0" encoding="iso-8859-1"?>
<!-- Generator: Adobe Illustrator 19.0.0, SVG Export Plug-In . SVG Version: 6.00 Build 0)  -->
<svg version="1.1" id="Layer_1" xmlns="http://www.w3.org/2000/svg" xmlns:xlink="http://www.w3.org/1999/xlink" x="0px" y="0px"
	 viewBox="0 0 512 512" style="enable-background:new 0 0 512 512;" xml:space="preserve">
<g>
	<g>
		<path d="M477.607,128.055C443.432,68.861,388.25,26.52,322.229,8.83C256.207-8.862,187.249,0.218,128.055,34.393
			C68.862,68.57,26.52,123.75,8.83,189.771c-17.69,66.022-8.611,134.981,25.564,194.174
			c34.175,59.194,89.355,101.535,155.377,119.225c22.046,5.908,44.417,8.83,66.644,8.83c44.339-0.001,88.101-11.629,127.529-34.395
			c59.193-34.175,101.535-89.355,119.225-155.377C520.861,256.207,511.782,187.248,477.607,128.055z M477.431,315.333
			c-15.849,59.146-53.78,108.579-106.81,139.197c-53.028,30.616-114.806,38.748-173.952,22.901
			c-59.147-15.849-108.581-53.78-139.197-106.81c-30.616-53.028-38.75-114.807-22.901-173.954
			c15.849-59.146,53.78-108.579,106.81-139.197c35.325-20.395,74.523-30.812,114.249-30.812c19.91,0,39.958,2.62,59.705,7.91
			c59.147,15.849,108.581,53.78,139.197,106.81C485.146,194.407,493.279,256.186,477.431,315.333z"/>
	</g>
</g>
<g>
	<g>
		<path d="M210.706,133.118h-33.12c-14.694,0-26.648,11.954-26.648,26.648v192.468c0,14.694,11.954,26.648,26.648,26.648h33.12
			c14.694,0,26.648-11.954,26.648-26.648V159.766C237.354,145.072,225.4,133.118,210.706,133.118z M210.706,352.234h-33.12V159.766
			h33.12l0.017,192.466C210.723,352.232,210.718,352.234,210.706,352.234z"/>
	</g>
</g>
<g>
	<g>
		<path d="M334.416,133.118h-33.12c-14.694,0-26.648,11.954-26.648,26.648v192.468c0,14.694,11.954,26.648,26.648,26.648h33.12
			c14.694,0,26.648-11.954,26.648-26.648V159.766C361.064,145.072,349.109,133.118,334.416,133.118z M334.414,352.234h-33.12
			V159.766h33.12l0.017,192.466C334.432,352.232,334.426,352.234,334.414,352.234z"/>
	</g>
</g>
<g>
</g>
<g>
</g>
<g>
</g>
<g>
</g>
<g>
</g>
<g>
</g>
<g>
</g>
<g>
</g>
<g>
</g>
<g>
</g>
<g>
</g>
<g>
</g>
<g>
</g>
<g>
</g>
<g>
</g>
</svg>
