<?xml version="1.0" standalone="no"?>
<!DOCTYPE svg PUBLIC "-//W3C//DTD SVG 20010904//EN"
 "http://www.w3.org/TR/2001/REC-SVG-20010904/DTD/svg10.dtd">
<svg version="1.0" xmlns="http://www.w3.org/2000/svg"
 width="1280.000000pt" height="1280.000000pt" viewBox="0 0 1280.000000 1280.000000"
 preserveAspectRatio="xMidYMid meet">
<g transform="translate(0.000000,1280.000000) scale(0.100000,-0.100000)"
fill="#000000" stroke="none">
<path d="M6170 12474 c-571 -32 -998 -103 -1486 -244 -409 -119 -902 -330
-1285 -550 -1191 -684 -2120 -1755 -2624 -3025 -199 -500 -328 -1017 -389
-1558 -54 -475 -46 -1028 23 -1522 123 -874 453 -1741 949 -2490 824 -1242
2099 -2151 3536 -2520 523 -134 963 -189 1511 -189 482 0 829 37 1280 135
1412 307 2677 1120 3552 2284 583 775 982 1709 1133 2651 267 1661 -158 3338
-1180 4666 -458 594 -1028 1105 -1665 1490 -818 495 -1716 782 -2680 858 -141
11 -570 20 -675 14z m636 -639 c1142 -86 2192 -513 3084 -1255 153 -128 512
-484 644 -639 443 -523 799 -1152 1014 -1796 376 -1120 371 -2353 -12 -3470
-270 -788 -707 -1487 -1306 -2085 -422 -423 -884 -757 -1408 -1019 -584 -292
-1165 -463 -1846 -543 -167 -20 -240 -23 -581 -22 -428 0 -591 13 -936 73
-1233 217 -2356 857 -3177 1811 -963 1119 -1426 2573 -1287 4040 85 890 378
1723 871 2472 213 325 407 562 699 854 432 433 861 744 1396 1014 883 446
1856 639 2845 565z"/>
<path d="M3940 10296 c-12 -16 48 -116 865 -1446 164 -267 356 -579 427 -695
70 -115 334 -545 586 -955 434 -705 458 -746 446 -770 -12 -25 -236 -403 -749
-1265 -131 -220 -293 -492 -360 -605 -67 -113 -356 -599 -642 -1080 -631
-1061 -588 -986 -573 -1005 7 -8 17 -15 23 -15 5 0 71 35 146 79 75 43 242
137 371 208 129 72 438 248 685 390 537 310 1174 678 1775 1025 157 91 420
243 585 338 165 95 442 255 615 355 360 208 806 466 1290 745 1172 676 1305
757 1305 791 0 21 -25 39 -175 125 -230 132 -609 351 -1480 854 -1332 769
-3619 2089 -4429 2557 -366 211 -672 383 -682 383 -9 0 -22 -7 -29 -14z"/>
</g>
</svg>
