<?xml version="1.0" standalone="no"?>
<!DOCTYPE svg PUBLIC "-//W3C//DTD SVG 20010904//EN"
 "http://www.w3.org/TR/2001/REC-SVG-20010904/DTD/svg10.dtd">
<svg version="1.0" xmlns="http://www.w3.org/2000/svg"
 width="651.000000pt" height="1280.000000pt" viewBox="0 0 651.000000 1280.000000"
 preserveAspectRatio="xMidYMid meet">
<g transform="translate(0.000000,1280.000000) scale(0.100000,-0.100000)"
fill="#000000" stroke="none">
<path d="M6047 12785 c-106 -27 -302 -138 -457 -258 -475 -369 -1661 -1563
-3188 -3209 l-184 -198 -1109 0 -1109 0 0 -2725 0 -2725 1118 -1 1117 0 185
-206 c1127 -1254 2430 -2587 2985 -3054 587 -494 973 -541 1080 -130 15 57 16
559 15 6058 0 3914 -4 6020 -10 6067 -36 254 -139 380 -320 392 -38 2 -89 -3
-123 -11z"/>
</g>
</svg>
