<?xml version="1.0" standalone="no"?>
<!DOCTYPE svg PUBLIC "-//W3C//DTD SVG 20010904//EN"
 "http://www.w3.org/TR/2001/REC-SVG-20010904/DTD/svg10.dtd">
<svg version="1.0" xmlns="http://www.w3.org/2000/svg"
 width="1280.000000pt" height="1024.000000pt" viewBox="0 0 1280.000000 1024.000000"
 preserveAspectRatio="xMidYMid meet">
<g transform="translate(0.000000,1024.000000) scale(0.100000,-0.100000)"
fill="#000000" stroke="none">
<path d="M6961 9700 c-220 -23 -462 -67 -856 -155 -132 -30 -332 -72 -445 -95
-550 -108 -1082 -300 -1423 -511 -283 -176 -548 -438 -745 -737 -87 -132 -195
-339 -242 -464 l-33 -88 -67 0 -67 0 -66 -137 c-68 -142 -180 -410 -307 -734
l-72 -187 -42 -12 c-110 -32 -280 -129 -385 -218 -131 -111 -365 -441 -492
-693 -68 -137 -185 -417 -243 -587 -107 -312 -122 -480 -54 -617 41 -82 98
-123 199 -144 l56 -12 5 -97 c6 -114 7 -117 133 -302 118 -173 125 -187 125
-257 0 -72 23 -260 45 -368 39 -195 109 -403 184 -552 30 -60 44 -105 55 -174
17 -104 61 -280 77 -312 21 -37 94 -109 151 -148 83 -57 686 -332 786 -358
384 -104 832 121 1227 614 417 520 707 1272 797 2060 16 141 16 560 -1 690
-65 522 -244 886 -527 1076 -135 89 -414 210 -576 249 -82 20 -180 24 -227 11
-20 -5 -33 3 -75 44 -29 27 -69 59 -89 70 -20 11 -37 23 -37 27 0 5 67 142
149 306 147 293 233 475 271 572 l20 50 -75 37 c-41 21 -75 42 -75 47 0 15
112 223 173 323 76 122 220 319 296 403 391 438 1408 900 2176 991 91 10 114
9 239 -10 656 -105 1274 -407 1691 -826 322 -323 587 -756 708 -1155 81 -269
108 -434 114 -721 l5 -226 -63 -7 c-35 -3 -67 -10 -72 -15 -6 -6 -5 -85 2
-198 6 -103 15 -287 21 -408 5 -121 12 -287 16 -368 l6 -148 -83 52 c-46 28
-96 60 -111 71 -154 108 -526 192 -742 168 -102 -12 -195 -44 -337 -116 -576
-293 -1043 -867 -1278 -1569 -149 -450 -254 -1089 -237 -1450 16 -324 74 -530
261 -925 111 -235 191 -354 343 -515 69 -73 147 -115 397 -214 99 -39 189 -76
200 -81 50 -25 172 -41 335 -47 150 -4 189 -2 270 15 183 38 313 103 502 251
63 48 127 95 143 103 23 12 82 17 250 21 249 7 356 22 484 70 112 42 211 108
299 201 187 197 318 467 386 794 18 91 33 136 55 171 93 144 217 544 256 824
47 333 21 758 -70 1152 -41 175 -87 280 -163 372 -39 46 -129 126 -178 157 -1
1 5 41 12 90 15 104 58 529 76 761 6 88 12 272 12 408 1 284 7 265 -94 293
-30 8 -73 21 -94 27 l-40 12 -22 156 c-95 653 -277 1278 -503 1730 -133 265
-253 434 -441 619 -410 406 -844 674 -1286 795 -230 63 -340 77 -629 80 -143
2 -298 -1 -344 -5z m-3656 -3419 c-11 -5 -45 -16 -75 -26 -101 -32 -201 -102
-379 -264 -199 -182 -187 -176 -391 -191 -74 -6 -148 -12 -164 -15 -24 -4 -27
-2 -22 13 34 88 150 220 258 291 126 84 332 169 459 190 67 11 342 13 314 2z"/>
</g>
</svg>
