<?xml version="1.0" standalone="no"?>
<!DOCTYPE svg PUBLIC "-//W3C//DTD SVG 20010904//EN"
 "http://www.w3.org/TR/2001/REC-SVG-20010904/DTD/svg10.dtd">
<svg version="1.0" xmlns="http://www.w3.org/2000/svg"
 width="1280.000000pt" height="1280.000000pt" viewBox="0 0 1280.000000 1280.000000"
 preserveAspectRatio="xMidYMid meet">
<g transform="translate(0.000000,1280.000000) scale(0.100000,-0.100000)"
fill="#000000" stroke="none">
<path d="M6110 12794 c-230 -15 -367 -27 -505 -45 -2101 -259 -3958 -1572
-4922 -3479 -374 -742 -589 -1508 -665 -2380 -16 -189 -16 -791 0 -980 76
-872 291 -1638 665 -2380 915 -1810 2629 -3085 4617 -3434 376 -66 672 -91
1100 -91 349 0 498 9 795 46 2100 258 3958 1572 4922 3479 328 650 544 1358
632 2075 37 297 46 446 46 795 0 349 -9 498 -46 795 -226 1838 -1266 3510
-2824 4540 -904 598 -1882 940 -2975 1041 -154 14 -718 26 -840 18z m660
-1014 c394 -36 754 -147 1049 -324 349 -209 567 -483 659 -825 22 -85 25 -116
26 -271 0 -153 -4 -198 -31 -360 -29 -168 -99 -590 -218 -1315 -24 -148 -74
-450 -110 -670 -36 -220 -86 -521 -110 -670 -211 -1289 -202 -1241 -266 -1389
-106 -247 -287 -454 -519 -592 l-75 -44 -8 92 c-13 153 -22 157 -23 11 -1
-161 -20 -248 -84 -381 -50 -104 -88 -161 -164 -241 -99 -103 -216 -178 -363
-231 l-63 -23 0 -1624 c0 -1615 0 -1624 -21 -1685 -38 -114 -110 -192 -201
-217 -30 -9 -118 -11 -288 -9 l-245 3 -46 27 c-92 54 -151 149 -169 273 -6 45
-10 703 -10 1843 l0 1773 -45 92 c-70 142 -88 224 -89 397 -1 112 3 161 18
214 97 360 382 622 736 677 93 14 283 6 365 -16 33 -9 98 -34 145 -56 91 -42
83 -27 -12 22 -165 84 -295 114 -488 113 -121 -1 -161 -6 -242 -27 -309 -81
-564 -292 -694 -571 -33 -72 -76 -213 -89 -288 l-6 -37 -57 26 c-261 115 -488
336 -613 598 -95 199 -124 327 -123 545 0 145 4 183 72 590 62 366 198 1195
258 1565 9 55 18 101 19 103 1 1 191 -18 421 -43 573 -62 876 -95 1443 -156
336 -36 489 -49 500 -42 87 54 79 233 -11 247 -18 3 -181 21 -363 41 -181 19
-539 57 -795 85 -256 27 -618 66 -805 86 -187 20 -342 38 -344 40 -4 3 17 146
22 150 1 2 144 -13 317 -31 516 -56 1219 -132 1638 -177 283 -31 398 -39 409
-32 55 35 79 132 48 197 -9 19 -24 38 -33 42 -16 6 -459 55 -1807 200 -291 32
-531 58 -532 59 -1 1 25 160 33 195 6 29 -141 41 1249 -109 1054 -115 1091
-118 1115 -101 32 23 60 77 60 119 0 46 -25 100 -52 112 -13 6 -401 51 -863
100 -1339 144 -1455 157 -1459 161 -5 6 25 193 32 201 4 4 336 -29 737 -72
900 -98 1243 -135 1452 -157 183 -19 200 -16 226 40 32 67 15 174 -30 191 -10
4 -540 64 -1178 133 -638 69 -1162 127 -1164 128 -8 8 51 321 75 397 53 168
140 312 266 444 216 225 547 378 948 438 179 27 383 32 570 16z"/>
<path d="M7131 5584 c0 -11 3 -14 6 -6 3 7 2 16 -1 19 -3 4 -6 -2 -5 -13z"/>
</g>
</svg>
