<?xml version="1.0" standalone="no"?>
<!DOCTYPE svg PUBLIC "-//W3C//DTD SVG 20010904//EN"
 "http://www.w3.org/TR/2001/REC-SVG-20010904/DTD/svg10.dtd">
<svg version="1.0" xmlns="http://www.w3.org/2000/svg"
 width="1280.000000pt" height="1034.000000pt" viewBox="0 0 1280.000000 1034.000000"
 preserveAspectRatio="xMidYMid meet">
<g transform="translate(0.000000,1034.000000) scale(0.100000,-0.100000)"
fill="#000000" stroke="none">
<path d="M9975 10331 c-61 -15 -167 -75 -215 -120 -63 -60 -83 -125 -78 -249
4 -110 27 -160 118 -256 l67 -71 6 -605 c4 -333 12 -742 19 -910 7 -168 12
-575 13 -905 0 -549 -2 -622 -23 -855 -32 -348 -49 -481 -65 -497 -7 -7 -48
-17 -92 -23 -130 -17 -527 -48 -547 -42 -22 5 -93 123 -119 199 -20 55 -44
369 -37 477 3 47 4 50 43 63 22 8 62 17 90 21 69 10 78 28 71 162 -2 58 -16
175 -31 260 -60 358 -138 757 -153 790 -21 44 -109 106 -181 127 -45 13 -83
14 -210 9 -86 -4 -199 -12 -251 -16 -52 -5 -142 -14 -200 -19 -58 -6 -287 -17
-510 -26 -223 -9 -511 -22 -640 -30 -129 -8 -327 -17 -440 -20 -113 -3 -293
-12 -400 -20 -107 -8 -244 -17 -305 -20 -60 -3 -186 -12 -280 -20 -93 -8 -287
-19 -430 -25 -143 -5 -321 -14 -395 -20 -74 -5 -189 -12 -255 -15 -151 -8
-481 -39 -690 -65 -325 -41 -370 -54 -462 -130 -49 -40 -53 -47 -67 -114 -19
-90 -33 -230 -46 -471 -6 -104 -13 -196 -16 -204 -7 -21 -34 -208 -34 -236 0
-35 64 -102 108 -115 21 -5 77 -10 126 -10 l89 0 -5 -335 c-6 -314 -7 -336
-26 -367 -30 -49 -62 -75 -107 -87 -22 -6 -130 -16 -240 -21 -224 -11 -349
-24 -445 -45 -36 -8 -99 -19 -140 -25 -238 -35 -385 -71 -485 -120 -156 -75
-198 -134 -275 -379 -60 -193 -64 -225 -85 -573 -8 -145 -19 -310 -25 -368 -6
-58 -15 -234 -20 -392 -6 -158 -17 -347 -26 -420 -14 -115 -15 -265 -12 -1098
1 -531 -1 -1095 -6 -1255 -9 -312 -3 -405 35 -461 10 -16 28 -44 40 -61 29
-45 120 -98 209 -122 159 -43 713 -161 802 -171 107 -12 476 -30 492 -24 6 2
400 8 876 14 1067 13 1224 19 1940 86 331 31 444 36 956 49 591 15 790 26
1264 71 890 83 957 89 1355 109 585 29 727 42 935 86 338 71 704 200 766 270
30 34 58 86 80 144 10 28 23 59 30 70 26 41 34 152 45 605 8 333 8 503 0 600
-20 248 -32 731 -29 1185 3 394 1 463 -15 555 -10 60 -24 236 -32 410 -37 754
-77 999 -210 1286 -76 163 -153 259 -221 274 -22 5 -157 12 -301 16 l-263 7 1
186 c1 102 -4 346 -10 541 -6 195 -11 459 -11 585 0 127 -5 308 -10 404 -6
116 -6 231 0 340 17 274 15 590 -6 701 -30 167 -18 656 22 915 9 55 16 141 15
190 -1 50 -1 108 -1 130 6 296 6 298 -20 343 -14 24 -44 55 -70 72 -96 62
-267 102 -345 81z m133 -157 c67 -28 142 -117 142 -170 0 -32 -114 -154 -167
-179 -37 -18 -101 -15 -149 7 -37 17 -49 71 -35 153 18 104 59 169 121 194 35
14 45 13 88 -5z m16 -576 c3 -24 8 -153 11 -288 3 -135 10 -299 15 -365 6 -69
9 -583 8 -1200 -2 -911 1 -1126 15 -1375 22 -381 22 -493 1 -514 -19 -20 -103
-21 -129 -3 -20 15 -20 41 6 357 17 213 5 1683 -16 1965 -18 242 -31 1211 -18
1350 l8 89 40 12 c22 7 43 13 47 13 4 1 9 -18 12 -41z m-1227 -1938 c23 -46
82 -302 103 -445 7 -44 13 -141 14 -217 1 -160 -3 -171 -100 -225 -58 -33
-264 -105 -337 -118 -43 -8 -64 3 -139 73 l-48 45 0 121 c-1 215 -29 424 -64
472 -15 20 -142 51 -256 63 -110 12 -956 -3 -1330 -23 -157 -9 -418 -20 -580
-26 -162 -6 -347 -15 -410 -20 -63 -5 -160 -10 -215 -10 -161 0 -473 -29 -710
-65 -121 -18 -256 -36 -300 -40 -149 -12 -261 -57 -286 -117 -11 -25 -14 -79
-12 -215 1 -143 -1 -183 -11 -183 -7 0 -40 -28 -74 -63 l-60 -63 -184 -13
c-186 -13 -225 -18 -312 -42 l-48 -14 -30 35 c-61 73 -70 100 -62 213 3 56 10
119 15 140 6 20 20 98 33 172 27 150 43 186 102 228 49 34 204 65 485 96 103
11 199 25 214 31 15 6 129 17 254 25 124 8 258 19 296 24 39 6 126 13 195 16
69 2 175 11 235 19 61 8 232 20 380 26 149 6 401 17 560 25 160 8 396 17 525
20 272 7 690 29 970 50 107 8 330 20 495 26 165 5 350 14 410 18 61 5 144 8
185 7 l75 -1 22 -45z m-750 -378 c32 -17 42 -86 53 -337 6 -121 17 -267 25
-325 8 -58 15 -110 15 -117 0 -21 31 -43 60 -43 37 0 37 -3 46 -266 l6 -211
-42 -91 c-23 -50 -49 -93 -57 -96 -8 -4 -146 -11 -306 -16 -161 -6 -481 -17
-712 -25 -481 -17 -976 -31 -1615 -45 -245 -6 -494 -15 -555 -20 -118 -11
-496 -36 -685 -46 l-115 -6 -30 32 -30 31 0 302 c0 375 -5 360 132 427 77 37
95 50 103 75 14 44 30 256 30 421 0 96 4 145 13 157 10 13 46 18 202 27 105 6
222 15 262 20 48 7 81 6 99 -1 19 -6 57 -6 120 1 51 5 131 10 176 10 46 0 149
9 229 20 81 11 281 29 445 40 165 11 319 22 344 25 50 6 453 27 955 50 182 8
355 17 385 19 113 8 426 -1 447 -12z m664 -937 c4 -71 12 -170 19 -219 7 -48
13 -135 14 -192 1 -139 1 -139 -145 -139 l-111 0 -29 35 c-16 19 -32 50 -35
69 -8 39 3 487 12 538 6 29 10 32 48 36 22 2 82 3 131 3 l90 -1 6 -130z
m-4811 -210 c-1 -303 -10 -400 -45 -487 l-27 -68 -72 0 c-39 0 -76 4 -82 8
-20 13 -22 121 -8 372 15 282 21 335 40 372 12 23 21 27 81 33 38 3 75 8 83 9
8 2 19 3 23 2 5 -1 8 -109 7 -241z m5974 -544 c630 -12 736 -20 815 -58 143
-69 273 -285 300 -498 45 -360 62 -592 76 -1045 9 -261 20 -515 26 -565 24
-207 28 -334 35 -1020 7 -793 -1 -1093 -35 -1225 -25 -99 -95 -260 -122 -283
-12 -9 -47 -24 -78 -33 -31 -8 -114 -33 -184 -55 -145 -45 -318 -79 -587 -114
-102 -13 -259 -35 -350 -49 -91 -14 -313 -42 -495 -61 -181 -20 -395 -47 -475
-60 -194 -32 -605 -56 -1125 -65 -323 -6 -483 -14 -695 -33 -538 -50 -618 -56
-895 -67 -154 -5 -377 -14 -495 -20 -338 -15 -1453 -35 -1920 -34 -451 1 -623
13 -805 54 -49 11 -196 38 -325 61 -129 22 -340 62 -469 87 l-234 47 -36 100
-35 100 -1 320 c0 176 6 552 12 835 7 283 17 866 23 1295 13 1007 19 1079 102
1335 67 206 126 319 258 495 108 143 100 138 289 169 321 52 402 57 861 54
412 -2 602 7 651 33 9 4 45 13 80 18 72 12 705 51 816 51 39 0 83 4 97 10 39
14 242 28 521 35 156 4 271 12 307 20 96 24 209 34 435 40 120 4 252 11 293
16 192 25 253 30 510 39 151 5 309 14 350 20 157 21 285 29 605 41 857 30 898
30 1899 10z"/>
<path d="M8080 6335 c-7 -14 -10 -28 -6 -32 9 -9 36 25 36 44 0 21 -16 15 -30
-12z"/>
<path d="M8002 6339 c2 -6 8 -10 13 -10 5 0 11 4 13 10 2 6 -4 11 -13 11 -9 0
-15 -5 -13 -11z"/>
<path d="M8106 6271 c-4 -7 -5 -15 -2 -18 9 -9 19 4 14 18 -4 11 -6 11 -12 0z"/>
<path d="M8210 6205 c-7 -8 -8 -15 -2 -15 5 0 15 7 22 15 7 8 8 15 2 15 -5 0
-15 -7 -22 -15z"/>
<path d="M8297 6153 c-12 -11 -8 -23 8 -23 8 0 15 7 15 15 0 16 -12 20 -23 8z"/>
<path d="M9525 4600 c-33 -3 -82 -14 -110 -23 -27 -8 -66 -19 -85 -23 -63 -12
-273 -95 -395 -155 -156 -76 -392 -247 -524 -379 -71 -70 -318 -358 -394 -458
-32 -42 -92 -145 -133 -227 -60 -120 -82 -178 -111 -290 -35 -137 -36 -144
-37 -340 -1 -178 1 -208 21 -270 43 -141 126 -343 180 -440 173 -311 347 -499
558 -600 278 -134 604 -210 1010 -235 239 -15 354 -3 560 61 224 68 438 208
591 385 144 167 336 552 392 784 40 168 45 230 39 483 -6 254 -25 402 -68 544
-21 67 -134 332 -192 448 -92 185 -371 525 -430 525 -6 0 -38 18 -71 39 -65
42 -231 113 -366 155 -73 23 -96 26 -228 25 -81 -1 -174 -5 -207 -9z m291
-281 c32 -6 83 -22 112 -36 149 -70 581 -425 659 -542 58 -87 175 -388 207
-531 34 -157 76 -451 76 -536 0 -165 -144 -546 -290 -767 -133 -201 -384 -387
-523 -387 -23 0 -107 -14 -187 -31 -106 -22 -196 -33 -335 -41 -233 -14 -349
-4 -480 42 -105 37 -303 137 -406 207 -40 26 -83 54 -96 61 -13 7 -49 43 -82
80 -32 37 -86 95 -120 129 -53 54 -73 86 -145 235 -150 309 -193 455 -181 622
12 172 50 329 110 451 118 238 477 586 885 858 149 99 206 128 313 157 130 35
370 50 483 29z"/>
<path d="M9430 3406 c-140 -42 -326 -169 -394 -270 -45 -66 -85 -191 -93 -286
-11 -151 33 -273 140 -387 36 -38 89 -82 118 -98 l52 -28 169 7 c189 7 251 17
323 53 97 47 160 123 279 337 l66 118 0 87 c0 129 -18 178 -96 260 -122 130
-284 211 -434 217 -53 3 -102 -1 -130 -10z m212 -316 c32 -66 57 -189 65 -325
l6 -101 -31 -26 c-49 -41 -126 -54 -229 -39 -104 15 -212 53 -237 83 -15 19
-18 36 -14 108 10 216 160 363 363 357 l50 -2 27 -55z"/>
<path d="M7480 4384 c-224 -19 -768 -62 -885 -69 -55 -4 -158 -13 -230 -21
-71 -7 -182 -14 -245 -14 -64 0 -151 -4 -195 -10 -44 -5 -165 -14 -270 -20
-189 -10 -259 -20 -277 -38 -5 -5 -5 -26 1 -53 6 -24 17 -148 25 -275 9 -127
20 -242 25 -257 39 -101 344 -130 801 -75 236 28 308 33 1087 73 265 14 495
30 511 36 42 14 60 62 73 191 13 124 6 202 -30 372 -21 100 -48 159 -77 170
-23 9 -138 5 -314 -10z m244 -173 c8 -12 46 -275 46 -315 0 -26 -5 -35 -22
-40 -34 -10 -343 -65 -346 -62 -1 2 -3 18 -4 37 0 19 -5 103 -11 187 -9 139
-9 154 7 170 14 14 44 18 164 23 81 3 150 6 154 7 4 1 9 -2 12 -7z m-566 -59
c6 -9 12 -23 12 -31 0 -9 7 -79 15 -156 19 -185 21 -171 -22 -186 -40 -14
-416 -19 -429 -6 -4 3 -10 77 -14 164 -5 87 -11 170 -15 185 -9 36 6 39 195
48 182 9 240 5 258 -18z m-657 -38 c16 -20 20 -337 4 -352 -11 -11 -422 -35
-436 -26 -5 3 -9 76 -9 163 0 107 -4 161 -12 169 -6 6 -9 14 -5 18 10 11 265
39 383 42 46 2 65 -2 75 -14z m-633 -209 c-2 -114 -7 -178 -15 -186 -6 -6 -57
-13 -115 -16 -132 -7 -138 -3 -138 101 0 40 -3 114 -6 164 -7 86 -6 91 12 87
10 -3 62 1 114 9 52 7 108 14 123 15 l28 1 -3 -175z"/>
<path d="M3831 4349 c-188 -29 -570 -190 -776 -327 -297 -199 -529 -550 -742
-1120 -100 -271 -105 -303 -101 -687 l3 -320 33 -95 c30 -88 41 -107 167 -270
162 -209 232 -282 345 -359 178 -122 327 -178 644 -243 l201 -40 175 6 c266 9
445 45 664 132 341 137 663 379 858 644 83 112 118 180 167 324 91 262 120
436 102 600 -14 118 -83 441 -122 562 -44 139 -275 519 -433 714 -90 110 -253
271 -318 313 -95 62 -260 127 -377 149 -124 22 -394 32 -490 17z m330 -214
c105 -18 178 -43 282 -96 250 -127 421 -294 619 -604 73 -114 98 -176 162
-390 67 -225 86 -343 86 -524 0 -131 -1 -138 -41 -255 -52 -152 -143 -344
-213 -450 -67 -100 -263 -294 -403 -398 -112 -84 -192 -119 -364 -162 -268
-67 -445 -79 -579 -41 -30 8 -118 20 -195 25 -266 20 -354 56 -522 212 -225
211 -374 380 -393 448 -27 97 -47 585 -31 735 14 128 62 326 101 411 38 85
196 361 252 441 64 92 211 255 271 301 108 83 340 206 527 277 233 90 284 98
441 70z"/>
<path d="M3760 3146 c-128 -29 -284 -117 -361 -204 -22 -26 -58 -78 -78 -117
l-36 -70 1 -125 c1 -142 14 -189 82 -306 75 -128 142 -177 291 -210 68 -15 78
-15 155 1 44 10 103 26 130 37 115 45 323 207 364 283 13 24 16 64 17 205 l0
175 -33 66 c-37 77 -158 200 -226 230 -39 17 -199 50 -235 48 -9 0 -41 -6 -71
-13z m221 -229 c31 -7 63 -18 71 -25 39 -32 56 -221 28 -308 -27 -82 -94 -138
-182 -150 -130 -18 -288 98 -305 224 -13 94 89 224 207 266 47 17 78 15 181
-7z"/>
<path d="M6810 3399 c-107 -10 -339 -35 -515 -55 -176 -20 -358 -39 -405 -43
-78 -5 -90 -9 -129 -41 l-44 -34 7 -176 c5 -143 12 -201 38 -320 l32 -145 5
-532 c6 -519 6 -532 27 -560 11 -15 40 -35 63 -43 38 -13 56 -12 234 14 176
26 229 29 642 38 370 7 468 13 550 28 55 10 123 22 152 26 57 7 192 69 207 95
6 11 4 41 -7 90 -17 72 -25 208 -62 954 -15 301 -38 566 -55 639 -4 21 -15 45
-23 54 -36 35 -405 41 -717 11z m483 -148 c77 -10 142 -23 147 -27 10 -12 30
-227 21 -236 -3 -4 -81 -8 -173 -10 -194 -4 -173 -18 -183 132 -3 52 -8 110
-11 128 -5 31 -4 32 28 32 18 0 95 -9 171 -19z m-414 -18 c9 -18 35 -262 29
-268 -7 -7 -384 -23 -416 -18 -18 3 -35 10 -39 16 -6 9 -43 229 -39 234 4 5
353 51 398 52 45 1 59 -3 67 -16z m-652 -61 c39 -25 58 -176 27 -220 -15 -21
-21 -22 -178 -22 -119 0 -166 3 -174 13 -5 6 -13 51 -17 98 l-7 86 79 7 c43 3
112 15 153 25 87 22 101 23 117 13z m1255 -684 c4 -215 11 -393 23 -502 12
-113 15 -182 9 -210 l-9 -41 -80 -23 c-43 -12 -118 -27 -165 -33 -84 -11
-1037 -27 -1219 -21 l-93 3 6 32 c3 18 8 120 12 227 6 187 -2 325 -41 685 -4
33 -1 56 7 68 17 23 169 51 398 71 96 9 241 25 322 37 169 23 374 35 639 38
l187 1 4 -332z"/>
<path d="M6305 2424 c-46 -25 -114 -94 -137 -139 -12 -23 -23 -67 -26 -106 -6
-88 14 -128 91 -185 68 -50 109 -64 193 -64 51 0 68 5 107 31 54 36 122 109
145 156 9 18 25 36 36 39 45 15 161 31 169 24 4 -4 14 -30 22 -59 25 -95 59
-127 159 -148 33 -7 100 -13 148 -13 l86 0 56 62 c66 73 106 148 105 197 -2
87 -56 157 -148 192 -63 25 -80 25 -486 20 -137 -2 -304 -1 -370 3 -101 5
-125 4 -150 -10z m200 -149 c27 -26 32 -63 14 -98 -21 -41 -63 -77 -102 -88
-35 -9 -43 -8 -76 16 -21 14 -44 37 -51 50 -16 29 -6 43 73 106 59 48 105 52
142 14z m696 15 c10 -6 25 -23 33 -39 14 -26 13 -32 -14 -89 -36 -77 -59 -91
-105 -62 -46 28 -85 76 -85 104 0 25 29 55 75 79 35 19 69 21 96 7z"/>
<path d="M12360 4619 c-46 -19 -119 -70 -125 -89 -8 -24 -119 -154 -309 -358
-168 -182 -210 -233 -257 -317 l-32 -56 23 -25 c29 -30 77 -32 136 -5 61 28
242 207 355 351 54 69 127 161 163 205 36 44 87 122 113 173 l48 93 -24 20
c-25 21 -52 23 -91 8z"/>
<path d="M11940 3429 c-123 -13 -237 -36 -278 -56 -32 -16 -38 -24 -46 -66
-10 -58 3 -93 39 -107 14 -5 101 -9 193 -9 145 1 184 -2 291 -25 69 -14 177
-33 240 -41 64 -8 162 -23 219 -32 l102 -17 29 29 c32 34 71 125 71 164 0 14
-9 45 -19 67 -23 51 -39 55 -293 84 -186 21 -396 24 -548 9z"/>
<path d="M653 3389 c-28 -8 -33 -14 -33 -42 0 -46 37 -101 94 -138 27 -18 133
-118 237 -221 184 -185 189 -189 226 -186 26 2 41 9 48 23 5 11 21 37 34 58
13 21 27 54 31 72 8 34 6 36 -121 154 -168 156 -269 238 -321 261 -53 23 -152
33 -195 19z"/>
<path d="M11699 2807 c-57 -38 -52 -65 28 -144 92 -91 266 -204 350 -229 136
-40 203 -36 203 12 0 38 -84 168 -151 234 -73 73 -141 108 -252 131 -118 24
-137 24 -178 -4z"/>
<path d="M930 2464 c-52 -8 -176 -28 -275 -44 -99 -16 -236 -37 -305 -46 -137
-17 -292 -63 -328 -96 -28 -27 -28 -63 1 -82 12 -8 60 -23 107 -32 81 -17 96
-17 265 -1 265 24 704 116 807 168 47 24 67 61 47 85 -8 10 -36 28 -64 40 -58
28 -111 29 -255 8z"/>
<path d="M1170 1988 c-74 -51 -154 -112 -177 -135 -40 -39 -43 -46 -43 -96 0
-29 5 -58 12 -65 7 -7 35 -12 63 -12 63 0 113 30 204 123 57 58 79 92 138 205
21 41 9 66 -33 70 -23 2 -58 -16 -164 -90z"/>
</g>
</svg>
