<?xml version="1.0" standalone="no"?>
<!DOCTYPE svg PUBLIC "-//W3C//DTD SVG 20010904//EN"
 "http://www.w3.org/TR/2001/REC-SVG-20010904/DTD/svg10.dtd">
<svg version="1.0" xmlns="http://www.w3.org/2000/svg"
 width="1280.000000pt" height="1051.000000pt" viewBox="0 0 1280.000000 1051.000000"
 preserveAspectRatio="xMidYMid meet">
<g transform="translate(0.000000,1051.000000) scale(0.100000,-0.100000)"
fill="#000000" stroke="none">
<path d="M1107 10489 c-72 -38 -117 -127 -132 -261 l-6 -58 80 0 81 0 0 -853
0 -854 -172 -6 c-252 -8 -397 -42 -555 -127 -190 -102 -315 -242 -377 -423
-21 -62 -21 -63 -24 -1567 -2 -1051 0 -1524 8 -1569 24 -137 74 -234 179 -345
133 -139 300 -223 534 -271 l27 -5 0 -1493 c0 -899 4 -1529 10 -1585 27 -258
172 -470 395 -577 173 -83 -370 -76 5280 -73 l5040 3 65 23 c126 46 201 92
291 182 93 93 136 160 175 272 37 110 44 212 44 703 0 443 0 450 19 420 42
-68 91 -95 172 -95 82 0 152 46 184 122 12 30 15 83 15 269 l0 232 21 -19 c26
-23 47 -12 74 42 18 35 20 59 20 234 0 180 -2 199 -22 243 -25 54 -46 67 -72
43 -10 -9 -20 -16 -23 -16 -4 0 -7 75 -8 166 -1 212 -15 251 -104 296 -85 43
-205 13 -255 -64 l-21 -33 0 351 0 350 104 26 c307 76 536 266 618 513 l23 70
0 1540 c0 1462 -1 1543 -18 1600 -82 268 -326 463 -677 542 -67 15 -197 17
-1233 20 l-1158 4 -58 58 c-94 94 -217 158 -369 191 -85 19 -162 20 -2760 20
-2938 0 -2734 4 -2898 -59 -89 -35 -198 -106 -253 -166 l-41 -45 -1055 0
-1055 0 0 860 0 860 95 0 c52 0 95 3 95 8 -1 80 -48 211 -93 260 -56 60 -142
77 -210 41z m2309 -2603 c113 -93 233 -146 394 -172 132 -22 5299 -21 5423 1
160 28 286 84 386 171 l64 55 816 -4 c886 -4 857 -2 1039 -62 267 -89 479
-302 527 -530 12 -60 15 -291 15 -1559 0 -1150 -3 -1504 -12 -1555 -11 -58
-14 -3 -19 449 -7 567 -7 574 -73 713 -69 149 -183 265 -331 337 -135 66 -171
71 -524 77 -220 4 -308 8 -295 16 136 72 145 260 15 348 -36 24 -39 24 -296
27 -169 2 -273 0 -297 -8 -153 -45 -186 -256 -55 -351 l40 -29 -154 0 -154 0
30 19 c74 44 113 135 95 216 -10 46 -33 78 -84 119 l-38 31 -261 3 c-171 2
-275 0 -299 -8 -152 -45 -186 -256 -57 -349 l42 -31 -154 0 -154 0 30 19 c49
30 77 67 91 121 25 96 -20 189 -111 231 -36 17 -68 19 -295 19 -227 0 -259 -2
-295 -19 -136 -63 -156 -253 -34 -340 l42 -31 -154 0 -154 0 30 19 c49 30 77
67 91 121 25 96 -20 189 -111 231 -36 17 -68 19 -295 19 -227 0 -259 -2 -295
-19 -136 -63 -156 -253 -34 -340 l42 -31 -139 0 c-107 1 -134 3 -119 12 73 40
109 108 103 194 -5 76 -38 126 -108 162 -42 21 -54 22 -300 22 -246 0 -258 -1
-300 -22 -70 -36 -103 -86 -108 -162 -6 -86 30 -154 103 -194 15 -8 -474 -11
-1835 -12 -1814 0 -1854 0 -1825 19 63 39 105 108 105 174 0 52 -45 131 -93
163 l-42 29 -570 3 c-637 3 -624 4 -687 -66 -48 -54 -65 -111 -49 -170 14 -54
51 -106 93 -131 28 -18 24 -18 -214 -24 -194 -4 -258 -9 -315 -24 l-73 -19 0
1048 0 1048 26 11 c58 21 186 50 260 58 44 5 476 9 962 10 l883 1 65 -54z
m-2286 -1120 l0 -1043 -55 -37 c-124 -82 -231 -221 -281 -365 -38 -108 -45
-236 -42 -713 2 -240 0 -434 -4 -430 -25 27 -28 188 -28 1611 0 1265 3 1496
15 1556 22 104 77 205 163 296 69 74 192 168 220 169 9 0 12 -215 12 -1044z"/>
<path d="M1605 384 c-144 -75 -155 -265 -20 -349 l48 -30 249 -3 c291 -4 324
2 382 70 84 97 55 253 -56 307 -42 20 -60 21 -309 21 -220 0 -269 -3 -294 -16z"/>
<path d="M10455 384 c-144 -75 -155 -265 -20 -349 l48 -30 249 -3 c291 -4 324
2 382 70 84 98 56 252 -56 307 -42 20 -60 21 -309 21 -220 0 -269 -3 -294 -16z"/>
</g>
</svg>
