<?xml version="1.0" standalone="no"?>
<!DOCTYPE svg PUBLIC "-//W3C//DTD SVG 20010904//EN"
 "http://www.w3.org/TR/2001/REC-SVG-20010904/DTD/svg10.dtd">
<svg version="1.0" xmlns="http://www.w3.org/2000/svg"
 width="1280.000000pt" height="1280.000000pt" viewBox="0 0 1280.000000 1280.000000"
 preserveAspectRatio="xMidYMid meet">
<g transform="translate(0.000000,1280.000000) scale(0.100000,-0.100000)"
fill="#000000" stroke="none">
<path d="M6145 12789 c-44 -4 -152 -13 -240 -19 -1287 -94 -2539 -595 -3545
-1419 -328 -269 -643 -584 -911 -911 -516 -630 -912 -1367 -1155 -2150 -137
-439 -231 -940 -264 -1395 -6 -82 -15 -197 -20 -255 -13 -134 -13 -346 0 -480
5 -58 14 -172 20 -255 77 -1075 442 -2133 1053 -3050 348 -522 784 -1003 1277
-1406 1006 -824 2263 -1327 3545 -1419 83 -6 197 -15 255 -20 134 -13 346 -13
480 0 58 5 173 14 255 20 1282 92 2539 595 3545 1419 327 268 642 583 911 911
515 628 912 1367 1155 2150 137 439 231 940 264 1395 6 83 15 197 20 255 6 58
10 166 10 240 0 74 -4 182 -10 240 -5 58 -14 173 -20 255 -77 1075 -442 2133
-1053 3050 -348 523 -782 1000 -1277 1406 -1005 823 -2263 1327 -3545 1419
-82 6 -197 15 -255 20 -121 11 -378 11 -495 -1z m-1021 -2655 c15 -6 16 -345
16 -3750 l0 -3744 -492 2 -493 3 -3 3735 c-2 3503 -1 3736 15 3748 13 9 125
12 479 12 254 0 469 -3 478 -6z m3539 -6 c16 -12 17 -245 15 -3748 l-3 -3735
-492 -3 -493 -2 0 3744 c0 2986 3 3745 13 3749 6 3 222 6 478 6 357 1 469 -2
482 -11z"/>
</g>
</svg>
